<?xml version="1.0" encoding="utf-8"?>
<!-- Generator: Adobe Illustrator 24.2.0, SVG Export Plug-In . SVG Version: 6.00 Build 0)  -->
<svg version="1.1" id="Layer_1" xmlns="http://www.w3.org/2000/svg" xmlns:xlink="http://www.w3.org/1999/xlink" x="0px" y="0px"
	 viewBox="0 0 250 120" style="enable-background:new 0 0 250 120;" xml:space="preserve">
<style type="text/css">
	.st0{fill:#232B38;}
	.st1{fill:#BF94E4;}
</style>
<g>
	<g>
		<ellipse class="st0" cx="129.6" cy="63.3" rx="34.4" ry="30"/>
		<path class="st1" d="M150.1,98.7c-0.9,0-1.8-0.1-2.5-0.2c-0.3,0-0.6-0.1-0.8-0.1c-1.1,0-1.9-0.8-2-2c-0.1-1.1,0.7-2.4,2.3-2.7
			c0.6-0.1,0.9-0.3,0.8-3.9c-0.1-2.6-2.6-4.2-5.1-5.4c-1.6-0.8-3.2-3-5-5.4c-1.2-1.6-2.4-3.2-3.2-3.8c-1.7-1.2-4.7-0.5-9,2.1
			c-4,2.4-9,1.9-11.3,1.5l-1.3,9.7c0,0.9-0.4,8.5-5.8,9c-2.6,0.2-4.3-0.1-5.1-1c-0.3-0.4-0.5-0.8-0.5-1.2c-0.1-0.4-0.2-1,0.1-1.7
			c0.4-1.1,1.5-2.1,3.2-2.9c1.3-0.6,1.9-6.2,0.7-13.8c-4-2-4.3-7.4-4.2-10.2c-1,0.2-2.2,0.2-3.6-0.6c-2.3-1.2-1.7-4.1-1-5.9
			c-0.8,0-1.9,0.2-2.8,0.5c-2.2,0.7-4,0.6-5.4-0.4c-1.9-1.3-2.4-3.8-2.5-4.7c-0.3-0.4-0.4-1-0.2-1.5c0.4-1.5,2.4-2.5,4-3.1
			c2-0.7,2.3-2.2,2.3-2.3v-0.1c0.1-0.2,1.5-5.1,8.8-5.3c0.1,0,0.1,0,0.2,0c5.9,0,11.3,7.4,13.1,10.1c3.4-1,17-5.8,19.9-16.3
			c1.8-6.7,5.9-11.7,11.3-14.2c5.4-2.4,11.5-2.2,17.4,0.7c0.6,0.3,0.8,0.9,0.5,1.5c-0.3,0.6-0.9,0.8-1.5,0.5
			c-5.3-2.3-10.7-2.5-15.5-0.4c-4.9,2.2-8.4,6.8-10.1,12.8c-3.5,13.3-21.4,17.9-22.2,18.1c-0.5,0.1-1-0.1-1.2-0.5
			c-0.6-1-6.3-9.8-11.6-9.8h-0.1c-5.4,0.2-6.6,3.3-6.8,3.7c-0.1,0.6-0.8,2.9-3.8,3.9c-1.6,0.6-2.3,1.1-2.5,1.4
			c0.1,0.2,0.2,0.4,0.2,0.6c0,0,0.1,2.3,1.6,3.3c0.8,0.6,2,0.6,3.5,0.1c0.7-0.2,3.9-1.1,5.6-0.2c0.5,0.3,0.7,1,0.5,1.5
			c-0.6,1.2-1.4,3.7-0.5,4.2c1.7,0.9,3.1,0,3.1-0.1c0.4-0.2,0.8-0.3,1.2,0c0.4,0.2,0.6,0.7,0.5,1.1c0,0.1-1.1,8.2,3.3,9.9
			c0.4,0.1,0.6,0.5,0.7,0.9c0.5,3.5,2,15-1.9,16.8c-1.9,0.9-2.1,1.7-2,1.9c0.1,0.1,0.1,0.2,0.1,0.4c0.3,0.1,1,0.4,3.1,0.2
			c3.6-0.3,3.8-6.8,3.8-6.9v-0.1l1.5-10.9c0-0.3,0.2-0.6,0.5-0.8c0.3-0.2,0.6-0.2,0.9-0.1c0.1,0,6.5,1.7,10.8-1
			c5.2-3.2,8.9-3.9,11.4-2c1.1,0.8,2.3,2.4,3.7,4.3s3.1,4.2,4.2,4.8c1.8,0.9,6.2,3.1,6.3,7.3c0.1,2.9,0.2,5.7-2.7,6.2
			c-0.1,0-0.3,0.1-0.4,0.2l0,0c0.2,0,0.4,0,0.7,0.1c3.8,0.4,4.4-0.1,4.5-0.4c0.2-0.8,0.1-2.4,0-3.9c-0.1-2.2-0.3-4.5,0.2-5.9
			c0.1-0.3-0.4-0.9-1.3-1.7c-1.4-1.4-3.3-3.2-3.3-6.4c0-2.5,0.7-3.6,1.3-4.5c0.7-1,1.2-1.9,0.9-5.2c-0.4-3.2-1.2-4.3-1.9-5.1
			c-0.7-0.9-1.4-1.7-0.8-3.7c0.9-3.1,4.6-13.6,4.8-14.1c0.5-1.6,1.5-6.6-0.3-8c-0.7-0.6-1.6-1-2.3-1.2c1.5,1.4,3.2,4.3,1,9.5
			c-0.8,2-1.5,4-2,5.8c-1.2,3.8-2.2,6.8-4.1,7.8c-0.8,0.4-1.6,0.4-2.5,0c-3.3-1.3-5.2-1.1-12.8,0H129c-2,0.3-3.8,0.3-5.6,0
			c-0.6-0.1-1-0.7-0.9-1.3c0.1-0.6,0.7-1,1.3-0.9c1.6,0.3,3.2,0.3,4.9,0h0.3c7.8-1.1,10-1.4,13.9,0.1c0.4,0.2,0.6,0.1,0.8,0
			c1.1-0.5,2-3.5,3-6.4c0.6-1.9,1.3-4,2.1-6c2.4-5.8-1-7.5-1.4-7.7c-0.1,0-0.2-0.1-0.3-0.2c-1.5-1.3-0.7-2.4-0.5-2.6
			c1.2-1.4,4.7-0.5,6.9,1.2c3.3,2.6,1.3,9.7,1,10.4c-0.1,0.2-3.9,11-4.8,14c-0.3,0.9-0.2,1,0.4,1.7c0.8,1,1.9,2.4,2.3,6.3
			c0.5,4.1-0.4,5.4-1.2,6.7c-0.5,0.8-1,1.5-1,3.3c0,2.2,1.4,3.6,2.6,4.8c1.1,1.1,2.4,2.3,1.8,4c-0.4,1.1-0.2,3.2-0.1,5.1
			c0.1,1.8,0.2,3.4,0,4.5C154.1,98.3,152,98.7,150.1,98.7z"/>
	</g>
</g>
</svg>
