<?xml version="1.0" encoding="utf-8"?>
<!-- Generator: Adobe Illustrator 26.5.0, SVG Export Plug-In . SVG Version: 6.00 Build 0)  -->
<svg version="1.0" id="Layer_1" xmlns="http://www.w3.org/2000/svg" xmlns:xlink="http://www.w3.org/1999/xlink" x="0px" y="0px"
	 width="100px" height="20px" viewBox="0 0 100 20" enable-background="new 0 0 100 20" xml:space="preserve">
<g>
	<g>
		<path fill="#232B38" d="M10.7,17.4c-0.1-0.2-0.1-0.6-0.1-1.1c0.1-0.4,0.3-1.4,0.8-2.9c0.4-1.3,0.6-2.2,0.5-2.8
			c-0.1-0.8-0.6-2.1-1.4-3.9C9.7,5,9.3,3.6,9.2,2.8c0-0.3,0.1-0.5,0.4-0.7c0.3-0.2,0.6-0.3,0.9-0.3c0.2,0,0.4,0,0.5,0.1
			c0.4,0.4,0.8,1.3,1.2,2.7c0.3,1.5,0.7,2.4,1.1,2.8c0.2-0.3,0.6-1.2,1-2.6c0.4-1.3,0.8-2.1,1.3-2.4c0.2-0.2,0.5-0.3,0.8-0.3
			c0.6,0,0.9,0.2,0.9,0.6c0,0.1,0,0.2,0,0.3c-0.6,1.5-1.5,3.5-2.6,6.2c-0.1,0.2-0.1,0.4-0.1,0.6c0,0.4,0.1,0.8,0.4,1.1
			c0.1,0.1,0.1,0.1,0.1,0.3c0,0.2-0.1,0.4-0.2,0.7c-0.1,0.1-0.3,0.2-0.6,0.3c-0.3,0.1-0.4,0.2-0.5,0.4c-0.2,1.1-0.6,2.7-1.1,4.8
			c-0.1,0.3-0.4,0.5-0.9,0.5C11.1,17.8,10.8,17.7,10.7,17.4z"/>
		<path fill="#232B38" d="M22.6,5.6c1,0,2,0.5,2.8,1.5c0.6,0.8,1,1.8,1,2.9c0,0.8-0.2,1.6-0.6,2.4c-0.4,0.7-0.9,1.4-1.6,1.8
			c-0.8,0.5-1.6,0.8-2.5,0.8c-0.8,0-1.5-0.2-2.1-0.7c-1.3-0.9-1.9-2.1-1.9-3.5c0-1.2,0.5-2.4,1.6-3.5C20.3,6.2,21.4,5.6,22.6,5.6z
			 M20.1,11.3c0.3,1.3,0.8,2,1.7,2c0.2,0,0.4,0,0.6-0.1c1.2-0.5,1.7-1.5,1.7-3c0-0.3,0-0.7-0.1-1c-0.2-0.7-0.8-1-1.8-1
			c-0.2,0-0.3,0-0.4,0c-0.3,0.1-0.7,0.5-1.1,1.3C20.2,10.3,20,10.9,20.1,11.3z"/>
		<path fill="#232B38" d="M28.9,14.7c-1.5-1.5-2.2-3.5-2.2-6c0-1.3,0.2-2.6,0.6-4C27.5,4.4,27.7,4.2,28,4c0.3-0.2,0.6-0.3,1-0.3
			c0.2,0,0.5,0.1,0.7,0.2C29.9,4.1,30,4.3,30,4.6c0,0.1,0,0.2,0,0.3c-0.5,1.2-0.8,2.5-0.8,3.9c0,2.2,0.7,3.8,2.1,4.6
			c0.3,0.2,0.6,0.3,0.9,0.3c0.6,0,1.2-0.4,1.6-1.2c0.4-0.7,0.7-1.5,0.8-2.3c0.1-0.5,0.2-1.1,0.2-1.7c0-0.5,0-1.2-0.1-2.1
			c-0.1-1-0.1-1.7-0.1-2.1c-0.1-0.4,0.1-0.7,0.6-0.9c0.2-0.1,0.7-0.3,1.4-0.4c0,0.1,0.1,0.2,0.2,0.3c0.2,0.1,0.2,0.1,0.2,0.2
			c0.2,1.4,0.3,2.6,0.3,3.6c0,2.4-0.6,4.5-1.7,6.1c-0.5,0.7-1.2,1.3-2,1.8c-0.9,0.5-1.7,0.8-2.5,0.8C30.2,15.6,29.5,15.3,28.9,14.7z
			"/>
		<path fill="#232B38" d="M37.7,9c0-0.5,0.1-1.1,0.4-2c0.2-0.9,0.4-1.5,0.4-1.9c0-0.3-0.1-0.6-0.2-0.9c-0.1-0.7-0.2-1-0.2-1
			c0-0.3,0.1-0.5,0.3-0.6C39.2,2,40,1.8,40.9,1.8c1,0,2,0.3,3,0.9c1,0.6,1.7,1.3,2.3,2.3c0.2,0.3,0.3,0.6,0.3,0.9
			c0,0.9-0.8,1.8-2.5,2.9c0.5,2.7,1.2,5,2.2,6.8c0,0.1,0.1,0.1,0.1,0.2c0,0.2-0.1,0.3-0.3,0.5c-0.2,0.1-0.5,0.2-0.7,0.2
			c-0.3,0-0.5-0.1-0.6-0.2c-0.7-0.6-1.2-1.6-1.6-3.1c-0.4-1.6-0.9-2.7-1.4-3.3c-0.2-0.2-0.4-0.2-0.8-0.2c-0.5,0-0.8,0.1-0.9,0.3
			c-0.1,0.3-0.2,0.7-0.2,1.1c0,0.5,0.1,1.2,0.3,2.1c0.2,1,0.3,1.7,0.4,2.1c0,0.2-0.2,0.4-0.5,0.5c-0.3,0.1-0.7,0.2-1,0.1
			c-0.3-0.1-0.5-0.3-0.7-0.7c-0.3-0.8-0.5-1.9-0.5-3.1C37.7,12.3,37.7,11.3,37.7,9z M40.4,6C40.1,6.7,40,7.1,40,7.3
			c0,0.3,0.4,0.5,1.1,0.5c1.1,0,2.1-0.4,2.9-1.1c0.3-0.2,0.5-0.4,0.5-0.6c0-0.1,0-0.1-0.1-0.2c-0.6-1.1-1.6-1.8-3.3-2
			c-0.3,0-0.6,0.2-0.7,0.8C40.5,5.1,40.4,5.6,40.4,6z"/>
		<path fill="#232B38" d="M53.3,15c-1.4-2-2.1-4.2-2.1-6.9c0-0.8,0.1-1.6,0.2-2.4c0.1-0.3,0.3-0.5,0.6-0.8c0.3-0.2,0.6-0.3,0.9-0.3
			c0.3,0,0.5,0.1,0.7,0.4c0.3,0.4,0.4,0.8,0.4,1.3c0,0.2,0,0.6-0.1,1.1s-0.1,0.9-0.1,1.2c0,0.3,0,0.5,0.1,0.8c0.1,0.5,0.2,1,0.3,1.6
			c0.1,0.6,0.4,1.1,0.7,1.4c0.4-0.5,0.8-1.2,1.2-2.3c0.4-1.1,0.8-1.8,1.1-2.2c0.4-0.5,0.8-0.7,1.2-0.7c0.5,0,1,0.4,1.6,1.1
			c0.4,0.6,0.7,1.3,1,2.1c0,0.1,0.1,0.3,0.2,0.5c0.1,0.2,0.2,0.3,0.3,0.2c0.5-0.7,0.8-1.5,0.8-2.5c0-0.3,0-0.9-0.1-1.6
			c-0.1-0.7-0.1-1.3-0.1-1.6c0-0.5,0-0.9,0.1-1.3c0.1-0.2,0.3-0.3,0.5-0.5c0.2-0.1,0.5-0.2,0.7-0.2c0.2,0,0.3,0,0.4,0.1
			c0.6,0.5,0.9,1.2,0.9,2.1c0,0.3,0,0.6-0.1,1.2s-0.1,0.9-0.1,1.1c0,1.4-0.3,3-1,4.6c-0.2,0.4-0.3,0.6-0.4,0.7
			c-0.2,0.3-0.4,0.5-0.6,0.7c-0.3,0.3-0.7,0.4-1,0.4c-0.7,0-1.4-0.6-2-1.7c-0.5-1.1-1-1.9-1.4-2.5c-0.2,0.3-0.6,1-1.1,2
			c-0.5,0.9-0.9,1.6-1.2,2c-0.5,0.6-1.2,0.9-1.9,0.9C53.7,15.1,53.5,15.1,53.3,15z"/>
		<path fill="#232B38" d="M70,5.6c1,0,2,0.5,2.8,1.5c0.7,0.8,1,1.8,1,2.9c0,0.8-0.2,1.6-0.6,2.4c-0.4,0.7-0.9,1.4-1.6,1.8
			c-0.8,0.5-1.6,0.8-2.5,0.8c-0.8,0-1.5-0.2-2.1-0.7c-1.3-0.9-1.9-2.1-1.9-3.5c0-1.2,0.5-2.4,1.6-3.5C67.7,6.2,68.8,5.6,70,5.6z
			 M67.5,11.3c0.3,1.3,0.8,2,1.7,2c0.2,0,0.4,0,0.6-0.1c1.2-0.5,1.7-1.5,1.7-3c0-0.3,0-0.7-0.1-1c-0.2-0.7-0.8-1-1.8-1
			c-0.2,0-0.3,0-0.4,0c-0.3,0.1-0.7,0.5-1.1,1.3C67.6,10.3,67.5,10.9,67.5,11.3z"/>
		<path fill="#232B38" d="M79.2,5.6c1,0,2,0.5,2.8,1.5c0.7,0.8,1,1.8,1,2.9c0,0.8-0.2,1.6-0.6,2.4c-0.4,0.7-0.9,1.4-1.6,1.8
			c-0.8,0.5-1.6,0.8-2.5,0.8c-0.8,0-1.5-0.2-2.1-0.7c-1.3-0.9-1.9-2.1-1.9-3.5c0-1.2,0.5-2.4,1.6-3.5C76.9,6.2,78,5.6,79.2,5.6z
			 M76.7,11.3c0.3,1.3,0.8,2,1.7,2c0.2,0,0.4,0,0.6-0.1c1.2-0.5,1.7-1.5,1.7-3c0-0.3,0-0.7-0.1-1c-0.2-0.7-0.8-1-1.8-1
			c-0.2,0-0.3,0-0.4,0c-0.3,0.1-0.7,0.5-1.1,1.3C76.8,10.3,76.7,10.9,76.7,11.3z"/>
		<path fill="#232B38" d="M84.2,7c-0.4-1.7-0.6-3.1-0.5-4.2c0-0.1,0-0.3,0.1-0.4c0.1-0.1,0.2-0.2,0.3-0.2c0.8-0.3,1.7-0.4,2.6-0.4
			c1.4,0,2.6,0.3,3.8,1c0.2,0.1,0.3,0.2,0.3,0.4c0,0.3-0.3,0.6-0.8,0.9c-0.2,0.1-0.5,0.2-0.7,0.2c-0.3,0-0.8-0.2-1.5-0.5
			c-0.7-0.3-1.2-0.4-1.6-0.3c0,0.3-0.1,0.7-0.1,1c0,0.7,0.1,1.5,0.3,2.4c0.2,0.8,0.4,1.6,0.6,2.4c0.2,0,0.6,0,1.1-0.1
			c0.6-0.1,1-0.1,1.2-0.1c0.9,0,1.4,0.3,1.3,1c0,0.4-0.5,0.6-1.4,0.7c-1,0.1-1.5,0.2-1.6,0.4c-0.1,0.2-0.2,0.5-0.2,0.7
			c0,0.4,0.2,0.9,0.5,1.5c0.4,0.8,0.6,1.3,0.6,1.6c0,0.1,0.1,0.2,0.1,0.4c0,0.3-0.1,0.5-0.4,0.7c-0.2,0.2-0.5,0.3-0.8,0.3
			c-0.3,0-0.5-0.1-0.6-0.2c-0.4-0.4-0.7-1.2-1-2.3c-0.2-1.1-0.5-1.9-0.9-2.3c0-0.1-0.1-0.1-0.2-0.1c0,0-0.2,0-0.4,0.1
			c-0.2,0-0.4,0.1-0.5,0c-0.4-0.1-0.6-0.3-0.6-0.6c0-0.1,0-0.2,0.1-0.3c0.1-0.1,0.3-0.3,0.7-0.5c0.3-0.2,0.5-0.4,0.5-0.5
			c0-0.2,0.1-0.3,0.1-0.5c0-0.3-0.1-0.6-0.2-1C84.4,7.7,84.3,7.3,84.2,7z"/>
	</g>
	
		<ellipse transform="matrix(0.3294 -0.9442 0.9442 0.3294 -2.7175 27.8755)" fill="#232B38" cx="18.3" cy="15.9" rx="1.2" ry="0.8"/>
	<ellipse transform="matrix(0.9942 -0.1077 0.1077 0.9942 -1.6932 2.3305)" fill="#232B38" cx="20.7" cy="16.8" rx="0.7" ry="1.2"/>
	<ellipse transform="matrix(0.9942 -0.1077 0.1077 0.9942 -1.6978 2.6142)" fill="#232B38" cx="23.4" cy="17" rx="0.8" ry="1.2"/>
	<ellipse transform="matrix(0.901 -0.4337 0.4337 0.901 -4.259 12.4438)" fill="#232B38" cx="25.1" cy="15.6" rx="0.6" ry="0.7"/>
</g>
</svg>
